# File created by Blade
# Date/Time:  Tue Jan 27 20:02:37 2015
# Frame Rate: 120.000 fps
#------------------------------------------------------
:FULLY-SPECIFIED
:DEGREES
4090
root 6.068902 32.245340 4.267733 -1.383449 -3.663360 -0.506794
Spine 4.849413 5.631490 1.441917
Head 22.349649 -3.200229 1.307497
LeftShoulder -17.134395 5.133090 31.242711
LeftArm -6.355304 -16.167111 -71.611045
LeftForeArm -4.392021 -0.000000 69.680116
LeftHand 10.796822 0.000000 10.873276
LeftHandThumb1 -26.253704 0.000000 33.147579
RightShoulder -23.822016 -24.121369 -32.570608
RightArm 9.485496 11.013768 52.379960
RightForeArm -13.449183 -0.000000 37.023410
RightHand 18.779644 -0.000000 6.295926
RightHandThumb1 -24.326973 -0.000000 -32.862282
LeftUpLeg 7.907394 3.797196 -6.336621
LeftLeg -1.462150 -0.000000 0.000000
LeftFoot -18.356377 16.270427 -20.790501
LeftToeBase 22.880960 -0.000000 -0.000000
RightUpLeg 3.066852 -4.555486 4.358960
RightLeg 10.391019 -0.000000 -0.000000
RightFoot -19.376692 -13.523375 19.323093
RightToeBase 9.085621 -0.000000 -0.000000
4091
root 6.059640 32.246975 4.275286 -1.398780 -3.717205 -0.512630
Spine 4.767174 5.597170 1.503958
Head 21.814601 -3.350058 1.360780
LeftShoulder -17.099549 5.095040 31.385125
LeftArm -6.202784 -16.790066 -71.112633
LeftForeArm -4.881629 0.000000 69.093454
LeftHand 10.678251 -0.000000 10.801805
LeftHandThumb1 -26.253704 0.000000 33.147579
RightShoulder -23.714715 -23.932359 -32.921880
RightArm 9.564609 11.295074 51.633373
RightForeArm -13.232006 -0.000000 36.047577
RightHand 18.678823 -0.000000 6.330549
RightHandThumb1 -24.326973 -0.000000 -32.862282
LeftUpLeg 7.968433 3.925829 -6.305532
LeftLeg -1.513861 -0.000000 0.000000
LeftFoot -18.325724 16.216784 -20.794651
LeftToeBase 23.001744 -0.000000 -0.000000
RightUpLeg 2.990590 -4.365128 4.441716
RightLeg 10.584445 -0.000000 -0.000000
RightFoot -19.746683 -13.738681 19.435456
RightToeBase 9.340880 -0.000000 -0.000000
4092
root 6.049187 32.248666 4.289539 -1.424904 -3.778509 -0.504343
Spine 4.665793 5.575577 1.537029
Head 21.338730 -3.477716 1.414048
LeftShoulder -17.068436 5.115261 31.531384
LeftArm -5.985694 -17.391860 -70.626473
LeftForeArm -5.367491 -0.000000 68.458115
LeftHand 10.537380 -0.000000 11.138813
LeftHandThumb1 -26.253704 0.000000 33.147579
RightShoulder -23.604852 -23.781306 -33.267206
RightArm 9.666502 11.718067 50.979468
RightForeArm -13.226516 -0.000000 35.105679
RightHand 18.469110 -0.000000 6.639709
RightHandThumb1 -24.326973 -0.000000 -32.862282
LeftUpLeg 8.062840 4.017282 -6.288575
LeftLeg -1.593337 -0.000000 0.000000
LeftFoot -18.311223 16.207133 -20.859038
LeftToeBase 22.916361 -0.000000 -0.000000
RightUpLeg 2.889264 -4.283477 4.505377
RightLeg 10.860653 -0.000000 -0.000000
RightFoot -20.160226 -13.805267 19.595763
RightToeBase 9.041482 -0.000000 -0.000000
4093
root 6.038514 32.249780 4.304239 -1.465770 -3.807012 -0.493735
Spine 4.579239 5.517179 1.572252
Head 20.863139 -3.594535 1.471318
LeftShoulder -17.055099 5.063951 31.690885
LeftArm -5.799473 -17.984483 -70.126903
LeftForeArm -5.919374 -0.000000 67.789892
LeftHand 10.560580 -0.000000 11.206604
LeftHandThumb1 -26.253704 0.000000 33.147579
RightShoulder -23.498015 -23.576145 -33.623696
RightArm 9.774696 12.129634 50.337186
RightForeArm -13.148228 -0.000000 34.082797
RightHand 18.538716 -0.000000 6.943912
RightHandThumb1 -24.326973 -0.000000 -32.862282
LeftUpLeg 8.142407 4.176603 -6.263943
LeftLeg -1.613138 -0.000000 0.000000
LeftFoot -18.298749 16.126305 -20.871784
LeftToeBase 22.880657 -0.000000 -0.000000
RightUpLeg 2.849559 -4.287637 4.567096
RightLeg 11.057741 -0.000000 -0.000000
RightFoot -20.665829 -13.767475 19.819098
RightToeBase 9.070158 -0.000000 -0.000000
4094
root 6.028780 32.251691 4.318093 -1.510793 -3.837969 -0.494919
Spine 4.497616 5.458307 1.631753
Head 20.412883 -3.694355 1.520201
LeftShoulder -17.046409 4.996096 31.817016
LeftArm -5.615006 -18.610076 -69.599441
LeftForeArm -6.565002 -0.000000 67.149420
LeftHand 10.342004 0.000000 11.224868
LeftHandThumb1 -26.253704 0.000000 33.147579
RightShoulder -23.378779 -23.275643 -34.040586
RightArm 9.794810 12.426332 49.708668
RightForeArm -12.954926 -0.000000 33.106921
RightHand 18.465238 0.000000 7.156251
RightHandThumb1 -24.326973 -0.000000 -32.862282
LeftUpLeg 8.219589 4.212315 -6.245801
LeftLeg -1.627990 -0.000000 0.000000
LeftFoot -18.309892 16.154646 -20.904092
LeftToeBase 22.942754 -0.000000 -0.000000
RightUpLeg 2.858449 -4.194189 4.650746
RightLeg 11.171668 -0.000000 -0.000000
RightFoot -21.171568 -13.783666 20.052345
RightToeBase 9.478272 -0.000000 -0.000000
4095
root 6.019210 32.252319 4.336677 -1.575527 -3.863563 -0.485998
Spine 4.418144 5.413171 1.672504
Head 20.000273 -3.826006 1.568259
LeftShoulder -17.030711 4.996697 31.942321
LeftArm -5.343090 -19.312165 -69.112510
LeftForeArm -7.153289 -0.000000 66.519541
LeftHand 10.162799 -0.000000 11.144650
LeftHandThumb1 -26.253704 0.000000 33.147579
RightShoulder -23.280803 -22.779876 -34.478310
RightArm 9.706696 12.417581 48.954096
RightForeArm -12.528961 0.000000 32.092669
RightHand 18.466335 -0.000000 7.265287
RightHandThumb1 -24.326973 -0.000000 -32.862282
LeftUpLeg 8.320568 4.226199 -6.238379
LeftLeg -1.630731 -0.000000 0.000000
LeftFoot -18.306726 16.239986 -20.845937
LeftToeBase 22.507224 -0.000000 -0.000000
RightUpLeg 2.892651 -4.196693 4.720502
RightLeg 11.278105 -0.000000 -0.000000
RightFoot -21.613866 -13.666550 20.305653
RightToeBase 9.990806 -0.000000 -0.000000
4096
root 6.006738 32.253866 4.357330 -1.648001 -3.887136 -0.468350
Spine 4.345017 5.371119 1.710940
Head 19.595763 -3.948747 1.581292
LeftShoulder -17.027481 4.872632 32.085961
LeftArm -5.174489 -19.949855 -68.555309
LeftForeArm -7.582384 -0.000000 65.866428
LeftHand 10.090226 -0.000000 10.803666
LeftHandThumb1 -26.253704 0.000000 33.147579
RightShoulder -23.231220 -22.599607 -34.833529
RightArm 9.904503 12.723407 48.394256
RightForeArm -12.358905 -0.000000 31.077647
RightHand 18.196198 -0.000000 7.476315
RightHandThumb1 -24.326973 -0.000000 -32.862282
LeftUpLeg 8.410482 4.318677 -6.220213
LeftLeg -1.596378 -0.000000 0.000000
LeftFoot -18.285529 16.185193 -20.844115
LeftToeBase 22.684791 -0.000000 -0.000000
RightUpLeg 2.986674 -4.179720 4.789260
RightLeg 11.283969 -0.000000 -0.000000
RightFoot -21.943440 -13.439925 20.680033
RightToeBase 9.786981 -0.000000 -0.000000
